<svg width="400" height="400" viewBox="0 0 400 400" fill="none" xmlns="http://www.w3.org/2000/svg">
<path d="M100.581 275.838C87.7992 275.838 76.2461 272.897 65.922 267.017C58.3989 262.731 52.0071 257.319 46.7464 250.778C44.7877 248.343 42.9859 245.752 41.3408 243.004C35.4414 232.876 32.3277 221.441 32 208.7V90.3508C32 88.0639 32.6555 86.267 33.9665 84.9602C35.4414 83.6534 37.244 83 39.3743 83C41.6686 83 43.4712 83.6534 44.7822 84.9602C46.0932 86.267 46.7487 88.0639 46.7487 90.3508V166.8C51.9927 158.305 59.2851 151.526 68.6259 146.462C78.1307 141.398 88.7825 138.867 100.581 138.867C113.691 138.867 125.408 141.889 135.733 147.933C146.221 153.813 154.414 161.899 160.314 172.19C166.377 182.482 169.409 194.161 169.409 207.23C169.409 220.298 166.377 232.059 160.314 242.514C154.414 252.805 146.221 260.973 135.733 267.017C125.408 272.897 113.691 275.838 100.581 275.838ZM100.581 262.116C110.906 262.116 120.083 259.747 128.112 255.01C136.306 250.11 142.779 243.575 147.532 235.408C152.284 227.077 154.66 217.684 154.66 207.23C154.66 196.775 152.284 187.464 147.532 179.296C142.779 171.129 136.306 164.676 128.112 159.939C120.083 155.038 110.906 152.588 100.581 152.588C90.4212 152.588 81.2443 155.038 73.0505 159.939C64.8568 164.676 58.3838 171.129 53.6314 179.296C49.043 187.464 46.7487 196.775 46.7487 207.23C46.7487 217.684 49.043 227.077 53.6314 235.408C58.3838 243.575 64.8568 250.11 73.0505 255.01C81.2443 259.747 90.4212 262.116 100.581 262.116Z" fill="#F3EDFF"/>
<path d="M41.3408 243.004C35.4414 232.876 32.3277 221.441 32 208.7V268.359C32.0402 270.646 32.7271 272.431 34.0608 273.715C35.3945 274.998 37.2084 275.62 39.5023 275.58C41.6323 275.543 43.4232 274.858 44.8749 273.526C46.1627 272.196 46.7866 270.388 46.7464 268.102V250.778C44.7877 248.343 42.9859 245.752 41.3408 243.004Z" fill="#F3EDFF"/>
<path d="M266.877 152.883H179.428C177.623 152.883 174.013 151.589 174.013 146.414C174.013 141.239 177.623 139.226 179.428 138.867C179.428 138.867 242.38 138.867 283.41 138.867C285.215 138.867 289.909 140.432 289.909 144.258C289.909 147.492 289.608 148.457 287.743 150.727C258.498 186.308 201.657 254.765 201.657 254.765C211.124 248.927 235.968 247.55 249.833 255.313C263.697 263.076 280.883 278.675 287.743 285.503C287.743 285.503 303.99 300.598 315.904 307.067C325.188 312.108 332.41 315.904 342.983 315.693C351.292 315.528 361.757 309.224 363.563 309.224C365.368 309.224 367.679 310.086 366.812 313.537C365.729 317.85 355.981 324.319 347.315 326.475C342.749 327.612 328.469 326.906 322.403 324.319C314.821 321.084 308.322 318.928 294.241 308.146C282.977 299.52 268.33 286.861 262.83 281.19C258.206 276.423 246.583 265.664 233.585 263.939C217.338 261.783 202.012 264.822 190.26 274.721C187.921 276.691 180.662 277.625 176.179 275.799C171.107 273.734 174.013 267.174 176.179 263.939C207.694 216.881 266.877 152.883 266.877 152.883Z" fill="#F3EDFF"/>
<path d="M100.581 275.838C87.7992 275.838 76.2461 272.897 65.922 267.017C58.3989 262.731 52.0071 257.319 46.7464 250.778C44.7877 248.343 42.9859 245.752 41.3408 243.004C35.4414 232.876 32.3277 221.441 32 208.7V90.3508C32 88.0639 32.6555 86.267 33.9665 84.9602C35.4414 83.6534 37.244 83 39.3743 83C41.6686 83 43.4712 83.6534 44.7822 84.9602C46.0932 86.267 46.7487 88.0639 46.7487 90.3508V166.8C51.9927 158.305 59.2851 151.526 68.6259 146.462C78.1307 141.398 88.7825 138.867 100.581 138.867C113.691 138.867 125.408 141.889 135.733 147.933C146.221 153.813 154.414 161.899 160.314 172.19C166.377 182.482 169.409 194.161 169.409 207.23C169.409 220.298 166.377 232.059 160.314 242.514C154.414 252.805 146.221 260.973 135.733 267.017C125.408 272.897 113.691 275.838 100.581 275.838ZM100.581 262.116C110.906 262.116 120.083 259.747 128.112 255.01C136.306 250.11 142.779 243.575 147.532 235.408C152.284 227.077 154.66 217.684 154.66 207.23C154.66 196.775 152.284 187.464 147.532 179.296C142.779 171.129 136.306 164.676 128.112 159.939C120.083 155.038 110.906 152.588 100.581 152.588C90.4212 152.588 81.2443 155.038 73.0505 159.939C64.8568 164.676 58.3838 171.129 53.6314 179.296C49.043 187.464 46.7487 196.775 46.7487 207.23C46.7487 217.684 49.043 227.077 53.6314 235.408C58.3838 243.575 64.8568 250.11 73.0505 255.01C81.2443 259.747 90.4212 262.116 100.581 262.116Z" fill="#F3EDFF"/>
<path d="M41.3408 243.004C35.4414 232.876 32.3277 221.441 32 208.7V268.359C32.0402 270.646 32.7271 272.431 34.0608 273.715C35.3945 274.998 37.2084 275.62 39.5023 275.58C41.6323 275.543 43.4232 274.858 44.8749 273.526C46.1627 272.196 46.7866 270.388 46.7464 268.102V250.778C44.7877 248.343 42.9859 245.752 41.3408 243.004Z" fill="#F3EDFF"/>
<path d="M351.791 256.534C351.791 262.924 346.611 268.103 340.22 268.103C333.829 268.103 328.648 262.924 328.648 256.534C328.648 250.145 333.829 244.966 340.22 244.966C346.611 244.966 351.791 250.145 351.791 256.534Z" fill="#F3EDFF"/>
</svg>
